<svg width="88" height="12" viewBox="0 0 88 12" fill="none" xmlns="http://www.w3.org/2000/svg">
<path d="M88 4.7393V12H85.9095V5.17121C85.9095 4.57977 85.756 4.0428 85.4491 3.56031C85.1422 3.07782 84.7315 2.6965 84.2172 2.41634C83.7029 2.1284 83.1305 1.98444 82.5 1.98444C81.8778 1.98444 81.3054 2.1284 80.7828 2.41634C80.2685 2.6965 79.8578 3.07782 79.5509 3.56031C79.244 4.0428 79.0905 4.57977 79.0905 5.17121V12H77V0.326849H79.0905V1.78599C79.5302 1.24124 80.086 0.809338 80.7579 0.490272C81.4299 0.163424 82.1599 0 82.948 0C83.8771 0 84.7232 0.214008 85.4864 0.642023C86.2579 1.06226 86.8676 1.63035 87.3156 2.3463C87.7719 3.06226 88 3.85992 88 4.7393Z" fill="#060807"/>
<path d="M69 12C67.896 12 66.888 11.7305 65.976 11.1916C65.072 10.6528 64.348 9.93169 63.804 9.02846C63.268 8.11765 63 7.11195 63 6.01138C63 5.17647 63.156 4.39848 63.468 3.67742C63.78 2.94877 64.208 2.3112 64.752 1.76471C65.304 1.21063 65.944 0.777988 66.672 0.466793C67.4 0.155598 68.176 0 69 0C70.104 0 71.108 0.26945 72.012 0.808349C72.924 1.34725 73.648 2.07211 74.184 2.98292C74.728 3.89374 75 4.90323 75 6.01138C75 6.83871 74.844 7.6129 74.532 8.33397C74.22 9.05503 73.788 9.6926 73.236 10.2467C72.692 10.7932 72.056 11.222 71.328 11.5332C70.608 11.8444 69.832 12 69 12ZM69 10.0873C69.752 10.0873 70.428 9.90133 71.028 9.52941C71.636 9.1499 72.112 8.65275 72.456 8.03795C72.808 7.41556 72.984 6.74004 72.984 6.01138C72.984 5.26755 72.804 4.58444 72.444 3.96205C72.092 3.33966 71.616 2.8425 71.016 2.47059C70.416 2.09867 69.744 1.91271 69 1.91271C68.248 1.91271 67.572 2.10247 66.972 2.48197C66.372 2.85389 65.896 3.35104 65.544 3.97343C65.192 4.59583 65.016 5.27514 65.016 6.01138C65.016 6.7704 65.196 7.4611 65.556 8.08349C65.916 8.69829 66.4 9.18786 67.008 9.55218C67.616 9.90892 68.28 10.0873 69 10.0873Z" fill="#060807"/>
<path d="M56.0188 12C54.9113 12 53.9002 11.7305 52.9853 11.1916C52.0785 10.6528 51.3522 9.93169 50.8065 9.02846C50.2688 8.11765 50 7.11195 50 6.01138C50 5.17647 50.1565 4.39848 50.4695 3.67742C50.7824 2.94877 51.2118 2.3112 51.7575 1.76471C52.3112 1.21063 52.9532 0.777988 53.6835 0.466793C54.4138 0.155598 55.1922 0 56.0188 0C56.9256 0 57.7562 0.174574 58.5105 0.523719C59.2729 0.865275 59.9229 1.34345 60.4606 1.95825C61.0063 2.57305 61.4116 3.28653 61.6764 4.09867C61.9492 4.91082 62.0495 5.77989 61.9773 6.70588H52.1547C52.251 7.35104 52.4757 7.92789 52.8288 8.43643C53.1819 8.93738 53.6313 9.33586 54.177 9.63188C54.7307 9.92789 55.3447 10.0797 56.0188 10.0873C56.741 10.0873 57.395 9.91271 57.9809 9.56357C58.5667 9.20683 59.0402 8.72106 59.4013 8.10626L61.4597 8.56167C60.9782 9.57116 60.2519 10.3985 59.2809 11.0436C58.3099 11.6812 57.2225 12 56.0188 12ZM52.0945 5.20303H59.943C59.8788 4.56546 59.6621 3.98482 59.293 3.4611C58.9238 2.92979 58.4543 2.50474 57.8846 2.18596C57.3148 1.86717 56.6929 1.70778 56.0188 1.70778C55.3447 1.70778 54.7267 1.86338 54.165 2.17457C53.6032 2.48577 53.1378 2.90702 52.7686 3.43833C52.4075 3.96205 52.1828 4.55028 52.0945 5.20303Z" fill="#060807"/>
<path d="M12 7.25146V0H13.9005V6.81871C13.9005 7.41131 14.04 7.94932 14.319 8.43275C14.598 8.91618 14.9713 9.30214 15.4389 9.59064C15.914 9.87134 16.4344 10.0117 17 10.0117C17.5732 10.0117 18.0897 9.87134 18.5498 9.59064C19.0173 9.30214 19.3906 8.91618 19.6697 8.43275C19.9487 7.94932 20.0882 7.41131 20.0882 6.81871V0H21.9887V12H20.0882V10.2105C19.6885 10.7563 19.1833 11.193 18.5724 11.5205C17.9615 11.8402 17.3017 12 16.5928 12C15.7481 12 14.9751 11.7895 14.2738 11.3684C13.5799 10.9396 13.0256 10.3665 12.6109 9.64912C12.2036 8.93177 12 8.13255 12 7.25146Z" fill="#060807"/>
<path d="M0 12V0H2.11321V9.98399H10V12H0Z" fill="#060807"/>
<path fill-rule="evenodd" clip-rule="evenodd" d="M43.9437 6H45.0237C46.6158 6 48 7.97215 48 10.2402V12H43.9437V6H42.885C42.0196 6 41.4477 6.54831 39.7548 9L37.6837 12H33.8028V9C33.8028 6.006 33.8008 6 32.835 6C32.1008 6 31.4711 6.58523 30.2278 8.42308C28.1287 11.5265 27.5608 11.9635 25.6056 11.9838L24 12V6H24.9826C25.7412 6 26.3283 5.44662 27.555 3.57692C29.5514 0.533539 30.1994 0.0369248 32.1972 0.0161555L33.8028 0V3C33.8028 5.98662 33.8072 6 34.7605 6C35.4886 6 36.2451 5.28046 37.9156 3C40.1026 0.0133843 40.1212 0 42.0281 0H43.9437V6Z" fill="#060807"/>
</svg>
