<svg width="9" height="9" viewBox="0 0 9 9" fill="none" xmlns="http://www.w3.org/2000/svg">
<path d="M2.92182 1.43667C3.17099 0.7075 4.17849 0.685417 4.47391 1.37042L4.49891 1.43708L4.83516 2.42042C4.91222 2.64593 5.03674 2.8523 5.20034 3.02559C5.36393 3.19889 5.56279 3.33509 5.78349 3.425L5.87391 3.45875L6.85724 3.79458C7.58641 4.04375 7.60849 5.05125 6.92391 5.34667L6.85724 5.37167L5.87391 5.70792C5.64832 5.78493 5.44187 5.90943 5.2685 6.07303C5.09513 6.23662 4.95886 6.4355 4.86891 6.65625L4.83516 6.74625L4.49932 7.73C4.25016 8.45917 3.24266 8.48125 2.94766 7.79667L2.92182 7.73L2.58599 6.74667C2.50898 6.52108 2.38448 6.31463 2.22088 6.14126C2.05729 5.96789 1.8584 5.83162 1.63766 5.74167L1.54766 5.70792L0.564324 5.37208C-0.165259 5.12292 -0.187343 4.11542 0.497657 3.82042L0.564324 3.79458L1.54766 3.45875C1.77317 3.38169 1.97954 3.25717 2.15283 3.09357C2.32613 2.92998 2.46233 2.73112 2.55224 2.51042L2.58599 2.42042L2.92182 1.43667ZM7.04391 7.52865e-08C7.12186 -9.83217e-08 7.19824 0.021866 7.26439 0.0631132C7.33053 0.10436 7.38378 0.163334 7.41807 0.233333L7.43807 0.282084L7.58391 0.709584L8.01182 0.855417C8.08994 0.881957 8.15842 0.93109 8.20858 0.99659C8.25875 1.06209 8.28834 1.14101 8.2936 1.22334C8.29887 1.30568 8.27958 1.38772 8.23816 1.45908C8.19675 1.53044 8.13509 1.58789 8.06099 1.62417L8.01182 1.64417L7.58432 1.79L7.43849 2.21792C7.4119 2.29601 7.36273 2.36446 7.29721 2.41458C7.23168 2.4647 7.15275 2.49425 7.07042 2.49947C6.98809 2.50469 6.90606 2.48535 6.83473 2.44391C6.7634 2.40246 6.70598 2.34078 6.66974 2.26667L6.64974 2.21792L6.50391 1.79042L6.07599 1.64458C5.99787 1.61804 5.92939 1.56891 5.87923 1.50341C5.82906 1.43791 5.79947 1.35899 5.79421 1.27666C5.78894 1.19432 5.80824 1.11228 5.84965 1.04092C5.89106 0.969566 5.95272 0.912109 6.02682 0.875834L6.07599 0.855834L6.50349 0.71L6.64932 0.282084C6.67742 0.199761 6.73058 0.128295 6.80134 0.0777079C6.8721 0.0271204 6.95692 -5.22006e-05 7.04391 7.52865e-08Z" fill="#00A56B"/>
</svg>
