<svg width="408" height="56" viewBox="0 0 408 56" fill="none" xmlns="http://www.w3.org/2000/svg">
<path d="M408 21.9731V55.6364H398.308V23.9756C398.308 21.2335 397.596 18.7439 396.173 16.5069C394.75 14.2699 392.846 12.5019 390.462 11.203C388.077 9.86806 385.423 9.20057 382.5 9.20057C379.615 9.20057 376.961 9.86806 374.538 11.203C372.154 12.5019 370.25 14.2699 368.827 16.5069C367.404 18.7439 366.692 21.2335 366.692 23.9756V55.6364H357V1.51539H366.692V8.28051C368.731 5.75486 371.308 3.75239 374.423 2.27308C377.538 0.757695 380.923 0 384.577 0C388.885 0 392.808 0.992219 396.346 2.97665C399.923 4.92501 402.75 7.5589 404.827 10.8783C406.942 14.1977 408 17.896 408 21.9731Z" fill="#060807"/>
<path d="M319.909 55.6364C314.791 55.6364 310.117 54.3871 305.889 51.8886C301.697 49.39 298.341 46.0469 295.819 41.8592C293.333 37.6364 292.091 32.9736 292.091 27.871C292.091 24 292.814 20.393 294.261 17.0498C295.707 13.6715 297.692 10.7155 300.214 8.18182C302.773 5.61291 305.74 3.60704 309.116 2.16422C312.491 0.721408 316.089 0 319.909 0C325.028 0 329.683 1.24927 333.874 3.7478C338.102 6.24633 341.459 9.60704 343.944 13.8299C346.466 18.0528 347.727 22.7331 347.727 27.871C347.727 31.7067 347.004 35.2962 345.557 38.6393C344.111 41.9824 342.108 44.9384 339.549 47.5073C337.027 50.0411 334.078 52.0293 330.703 53.4721C327.364 54.915 323.767 55.6364 319.909 55.6364ZM319.909 46.7683C323.396 46.7683 326.53 45.9062 329.312 44.1818C332.131 42.4223 334.337 40.1173 335.932 37.2669C337.564 34.3812 338.38 31.2493 338.38 27.871C338.38 24.4223 337.546 21.2551 335.877 18.3695C334.245 15.4839 332.038 13.1789 329.256 11.4545C326.474 9.73021 323.359 8.86804 319.909 8.86804C316.423 8.86804 313.288 9.7478 310.507 11.5073C307.725 13.2317 305.518 15.5367 303.886 18.4223C302.254 21.3079 301.438 24.4575 301.438 27.871C301.438 31.39 302.272 34.5924 303.941 37.478C305.611 40.3284 307.855 42.5982 310.673 44.2874C313.492 45.9413 316.571 46.7683 319.909 46.7683Z" fill="#060807"/>
<path d="M259.723 55.6364C254.589 55.6364 249.901 54.3871 245.659 51.8886C241.455 49.39 238.088 46.0469 235.557 41.8592C233.065 37.6364 231.818 32.9736 231.818 27.871C231.818 24 232.544 20.393 233.995 17.0498C235.446 13.6715 237.436 10.7155 239.966 8.18182C242.534 5.61291 245.51 3.60704 248.896 2.16422C252.282 0.721408 255.891 0 259.723 0C263.928 0 267.779 0.809386 271.276 2.42815C274.811 4.01173 277.824 6.22874 280.317 9.07917C282.847 11.9296 284.726 15.2375 285.954 19.0029C287.219 22.7683 287.684 26.7977 287.349 31.0909H241.808C242.255 34.0821 243.296 36.7566 244.934 39.1144C246.571 41.4369 248.654 43.2845 251.184 44.6569C253.752 46.0293 256.598 46.7331 259.723 46.7683C263.072 46.7683 266.104 45.9589 268.82 44.3402C271.536 42.6862 273.732 40.434 275.406 37.5836L284.95 39.695C282.717 44.3754 279.35 48.2111 274.848 51.2023C270.346 54.1584 265.304 55.6364 259.723 55.6364ZM241.529 24.1232H277.917C277.62 21.1672 276.615 18.4751 274.904 16.0469C273.192 13.5836 271.016 11.6129 268.374 10.1349C265.732 8.65689 262.849 7.91789 259.723 7.91789C256.598 7.91789 253.733 8.63929 251.129 10.0821C248.524 11.5249 246.366 13.478 244.655 15.9413C242.98 18.3695 241.938 21.0968 241.529 24.1232Z" fill="#060807"/>
<path d="M55.6364 33.6204V0H64.4475V31.614C64.4475 34.3615 65.0944 36.8559 66.3881 39.0973C67.6818 41.3386 69.4126 43.1281 71.5804 44.4657C73.7832 45.7671 76.1958 46.4179 78.8182 46.4179C81.4755 46.4179 83.8706 45.7671 86.0035 44.4657C88.1713 43.1281 89.9021 41.3386 91.1958 39.0973C92.4895 36.8559 93.1364 34.3615 93.1364 31.614V0H101.948V55.6364H93.1364V47.3397C91.2832 49.8703 88.9406 51.8947 86.1084 53.4131C83.2762 54.8953 80.2168 55.6364 76.9301 55.6364C73.014 55.6364 69.4301 54.6603 66.1783 52.7081C62.9615 50.7198 60.3916 48.0627 58.4685 44.7368C56.5804 41.4109 55.6364 37.7055 55.6364 33.6204Z" fill="#060807"/>
<path d="M0 55.6364V0H9.7976V46.2894H46.3636V55.6364H0Z" fill="#060807"/>
<path fill-rule="evenodd" clip-rule="evenodd" d="M203.739 27.8182H208.746C216.128 27.8182 222.545 36.9618 222.545 47.4771V55.6364H203.739V27.8182H198.83C194.818 27.8182 192.166 30.3603 184.318 41.7273L174.715 55.6364H156.722V41.7273C156.722 27.846 156.713 27.8182 152.235 27.8182C148.831 27.8182 145.911 30.5315 140.147 39.0524C130.415 53.4409 127.782 55.4673 118.717 55.5615L111.273 55.6364V27.8182H115.829C119.345 27.8182 122.068 25.2525 127.755 16.5839C137.011 2.47368 140.016 0.171197 149.278 0.0749029L156.722 0V13.9091C156.722 27.7561 156.743 27.8182 161.162 27.8182C164.538 27.8182 168.045 24.4821 175.79 13.9091C185.93 0.0620547 186.017 0 194.857 0H203.739V27.8182Z" fill="#060807"/>
</svg>
