<svg width="21" height="20" viewBox="0 0 21 20" fill="none" xmlns="http://www.w3.org/2000/svg">
<path d="M4 10.595C4.8 10.595 5.53333 10.8117 6.2 11.245C6.86667 11.6783 7.35833 12.27 7.675 13.02L7.925 13.595H8.55C9.25 13.595 9.83333 13.841 10.3 14.333C10.7667 14.825 11 15.4123 11 16.095C11 16.795 10.7583 17.3867 10.275 17.87C9.79167 18.3533 9.2 18.595 8.5 18.595H4C2.9 18.595 1.95833 18.2033 1.175 17.42C0.391667 16.6367 0 15.695 0 14.595C0 13.4783 0.391667 12.5323 1.175 11.757C1.95833 10.9817 2.9 10.5943 4 10.595ZM12.025 8.57C13.025 9.57 14.1793 10.3243 15.488 10.833C16.7967 11.3417 18.159 11.5457 19.575 11.445C19.7583 11.4283 19.921 11.4533 20.063 11.52C20.205 11.5867 20.3257 11.6867 20.425 11.82C20.5243 11.9533 20.591 12.095 20.625 12.245C20.659 12.395 20.6507 12.5533 20.6 12.72C20.0167 14.7367 18.846 16.3783 17.088 17.645C15.33 18.9117 13.409 19.5617 11.325 19.595C11.8583 19.1617 12.271 18.641 12.563 18.033C12.855 17.425 13.0007 16.779 13 16.095C13 14.9617 12.646 13.9827 11.938 13.158C11.23 12.3333 10.3257 11.8373 9.225 11.67C8.69167 10.72 7.96267 9.97 7.038 9.42C6.11333 8.87 5.10067 8.595 4 8.595C3.46667 8.595 2.946 8.66167 2.438 8.795C1.93 8.92833 1.45067 9.12833 1 9.395C1.03333 7.21167 1.671 5.27833 2.913 3.595C4.155 1.91167 5.80067 0.728333 7.85 0.0450001C8.01667 -0.00499994 8.17933 -0.0133334 8.338 0.02C8.49667 0.0533333 8.64233 0.12 8.775 0.22C8.90767 0.32 9.012 0.441 9.088 0.583C9.164 0.725 9.193 0.887333 9.175 1.07C9.09167 2.50333 9.29167 3.85767 9.775 5.133C10.2583 6.40833 11.0083 7.554 12.025 8.57Z" fill="#C6F57A"/>
</svg>
