<svg width="10" height="10" viewBox="0 0 10 10" fill="none" xmlns="http://www.w3.org/2000/svg">
<path d="M3.50619 1.724C3.80519 0.849 5.01419 0.8225 5.36869 1.6445L5.39869 1.7245L5.80219 2.9045C5.89466 3.17512 6.04409 3.42276 6.2404 3.63071C6.43672 3.83867 6.67534 4.00211 6.94019 4.11L7.04869 4.1505L8.22869 4.5535C9.10369 4.8525 9.13019 6.0615 8.30869 6.416L8.22869 6.446L7.04869 6.8495C6.77798 6.94191 6.53024 7.09132 6.3222 7.28763C6.11415 7.48395 5.95064 7.72261 5.84269 7.9875L5.80219 8.0955L5.39919 9.276C5.10019 10.151 3.89119 10.1775 3.53719 9.356L3.50619 9.276L3.10319 8.096C3.01078 7.82529 2.86137 7.57756 2.66506 7.36951C2.46874 7.16146 2.23009 6.99795 1.96519 6.89L1.85719 6.8495L0.677189 6.4465C-0.198311 6.1475 -0.224811 4.9385 0.597189 4.5845L0.677189 4.5535L1.85719 4.1505C2.12781 4.05803 2.37544 3.9086 2.5834 3.71229C2.79136 3.51597 2.95479 3.27735 3.06269 3.0125L3.10319 2.9045L3.50619 1.724ZM8.45269 9.03438e-08C8.54623 -1.17986e-07 8.63789 0.0262392 8.71726 0.0757358C8.79664 0.125232 8.86053 0.196001 8.90169 0.28L8.92569 0.3385L9.10069 0.8515L9.61419 1.0265C9.70793 1.05835 9.7901 1.11731 9.8503 1.19591C9.9105 1.27451 9.94601 1.36921 9.95233 1.46801C9.95865 1.56681 9.93549 1.66527 9.8858 1.75089C9.8361 1.83652 9.76211 1.90547 9.67319 1.949L9.61419 1.973L9.10119 2.148L8.92619 2.6615C8.89428 2.75521 8.83528 2.83735 8.75665 2.8975C8.67802 2.95764 8.58331 2.9931 8.48451 2.99936C8.38571 3.00563 8.28728 2.98242 8.20168 2.93269C8.11608 2.88296 8.04717 2.80893 8.00369 2.72L7.97969 2.6615L7.80469 2.1485L7.29119 1.9735C7.19745 1.94165 7.11527 1.88269 7.05507 1.80409C6.99488 1.72549 6.95937 1.63079 6.95305 1.53199C6.94673 1.43319 6.96989 1.33474 7.01958 1.24911C7.06927 1.16348 7.14327 1.09453 7.23219 1.051L7.29119 1.027L7.80419 0.852L7.97919 0.3385C8.0129 0.239713 8.07669 0.153954 8.16161 0.0932494C8.24652 0.0325445 8.34831 -6.26407e-05 8.45269 9.03438e-08Z" fill="#C6F57A"/>
</svg>
