<svg width="44" height="22" viewBox="0 0 44 22" fill="none" xmlns="http://www.w3.org/2000/svg">
<path fill-rule="evenodd" clip-rule="evenodd" d="M36.5634 5.5V11H38.5434C41.4623 11 44 14.6156 44 18.7736V22H40.2817H36.5634V16.5V11H34.6224C33.0359 11 31.9874 12.0052 28.8838 16.5L25.0868 22H21.529H17.9718V16.5C17.9718 11.011 17.9681 11 16.1976 11C14.8515 11 13.697 12.0729 11.4177 15.4423C7.56925 21.1318 6.52811 21.9332 2.94366 21.9704L0 22V16.5V11H1.80151C3.19216 11 4.2686 9.98546 6.51756 6.55769C10.1776 0.978154 11.3656 0.0676954 15.0282 0.0296185L17.9718 0V5.5C17.9718 10.9755 17.9799 11 19.7275 11C21.0624 11 22.4493 9.68085 25.5119 5.5C29.5215 0.024538 29.5556 0 33.0514 0H36.5634V5.5Z" fill="white"/>
</svg>
